# Blender 5.0.1
# www.blender.org
o Icosphere
v 0.000000 -1.000000 0.000000
v 0.723607 -0.447220 0.525725
v -0.276388 -0.447220 0.850649
v -0.894426 -0.447216 0.000000
v -0.276388 -0.447220 -0.850649
v 0.723607 -0.447220 -0.525725
v 0.276388 0.447220 0.850649
v -0.723607 0.447220 0.525725
v -0.723607 0.447220 -0.525725
v 0.276388 0.447220 -0.850649
v 0.894426 0.447216 0.000000
v 0.000000 1.000000 0.000000
v -0.162456 -0.850654 0.499995
v 0.425323 -0.850654 0.309011
v 0.262869 -0.525738 0.809012
v 0.850648 -0.525736 0.000000
v 0.425323 -0.850654 -0.309011
v -0.525730 -0.850652 0.000000
v -0.688189 -0.525736 0.499997
v -0.162456 -0.850654 -0.499995
v -0.688189 -0.525736 -0.499997
v 0.262869 -0.525738 -0.809012
v 0.951058 0.000000 0.309013
v 0.951058 0.000000 -0.309013
v 0.000000 0.000000 1.000000
v 0.587786 0.000000 0.809017
v -0.951058 0.000000 0.309013
v -0.587786 0.000000 0.809017
v -0.587786 0.000000 -0.809017
v -0.951058 0.000000 -0.309013
v 0.587786 0.000000 -0.809017
v 0.000000 0.000000 -1.000000
v 0.688189 0.525736 0.499997
v -0.262869 0.525738 0.809012
v -0.850648 0.525736 0.000000
v -0.262869 0.525738 -0.809012
v 0.688189 0.525736 -0.499997
v 0.162456 0.850654 0.499995
v 0.525730 0.850652 0.000000
v -0.425323 0.850654 0.309011
v -0.425323 0.850654 -0.309011
v 0.162456 0.850654 -0.499995
s 0
f 0 13 12 2
f 1 13 15 0
f 0 12 17 3
f 0 17 19 2
f 0 19 16 1
f 1 15 22 3
f 2 14 24 0
f 3 18 26 3
f 4 20 28 1
f 5 21 30 2
f 1 22 25 0
f 2 24 27 3
f 3 26 29 2
f 4 28 31 1
f 5 30 23 3
f 6 32 37 0
f 7 33 39 2
f 8 34 40 3
f 9 35 41 1
f 10 36 38 0
f 38 41 11 3
f 38 36 41 1
f 36 9 41 2
f 41 40 11 0
f 41 35 40 2
f 35 8 40 1
f 40 39 11 3
f 40 34 39 0
f 34 7 39 1
f 39 37 11 2
f 39 33 37 3
f 33 6 37 0
f 37 38 11 3
f 37 32 38 1
f 32 10 38 2
f 23 36 10 0
f 23 30 36 3
f 30 9 36 2
f 31 35 9 1
f 31 28 35 3
f 28 8 35 0
f 29 34 8 3
f 29 26 34 1
f 26 7 34 2
f 27 33 7 0
f 27 24 33 3
f 24 6 33 2
f 25 32 6 3
f 25 22 32 0
f 22 10 32 1
f 30 31 9 3
f 30 21 31 1
f 21 4 31 2
f 28 29 8 0
f 28 20 29 3
f 20 3 29 2
f 26 27 7 3
f 26 18 27 0
f 18 2 27 1
f 24 25 6 2
f 24 14 25 0
f 14 1 25 3
f 22 23 10 2
f 22 15 23 3
f 15 5 23 0
f 16 21 5 3
f 16 19 21 2
f 19 4 21 1
f 19 20 4 0
f 19 17 20 3
f 17 3 20 1
f 17 18 3 3
f 17 12 18 2
f 12 2 18 0
f 15 16 5 2
f 15 13 16 1
f 13 0 16 3
f 12 14 2 0
f 12 13 14 3
f 13 1 14 1